<?xml version="1.0" encoding="UTF-8"?>
<!-- Generator: Adobe Illustrator 15.0.2, SVG Export Plug-In . SVG Version: 6.00 Build 0)  -->
<!DOCTYPE svg PUBLIC "-//W3C//DTD SVG 1.1//EN" "http://www.w3.org/Graphics/SVG/1.1/DTD/svg11.dtd">
<svg version="1.1" id="Layer_1" xmlns="http://www.w3.org/2000/svg" xmlns:xlink="http://www.w3.org/1999/xlink" x="0px" y="0px" width="450px" height="44px" viewBox="0 0 450 44" enable-background="new 0 0 450 44" xml:space="preserve">
<path d="M15.624,26.986c-0.754,0.712-1.382,1.382-2.681,1.382c-0.251,0-0.293,0-0.544,0V4.073c0.461-0.419,1.801-1.508,2.849-2.681  l-0.209-0.251c-0.796,0.754-1.55,1.089-2.388,1.089c-0.545,0-1.801-0.125-2.597-0.377C8.964,1.518,8.126,1.309,7.121,1.309  c-1.382,0-4.817,1.214-6.283,6.032l0.251,0.125C1.634,6.209,2.89,5.623,4.021,5.623C4.817,5.623,5.78,5.832,6.577,6  C7.163,6.125,7.75,6.209,8.503,6.209c0.209,0,1.173-0.042,1.759-0.251C6.912,7.592,4.44,9.267,4.44,12.66v8.126  c0,2.598,0.125,5.529-2.179,6.576l0.126,0.21c4.607-1.047,7.623-3.31,7.623-7.121v-9.592c0-2.053,0.209-4.608,1.466-5.907  c0.251-0.251,0.376-0.376,0.586-0.586v24.002c-1.214-0.084-1.549-0.168-2.345-0.378c-1.047-0.292-2.22-0.543-3.393-0.543  c-1.759,0-4.607,1.256-6.325,5.821l0.251,0.126c0.502-1.257,1.801-1.927,2.848-1.927c1.215,0,2.262,0.293,3.016,0.502  c0.754,0.21,2.178,0.671,3.393,0.671c1.089,0,1.173-0.042,1.927-0.294l4.398-5.109L15.624,26.986L15.624,26.986z M34.851,28.787  l-1.047,0.712l-1.968-1.886V15.676l1.549-1.214l-0.209-0.251l-1.382,1.089l-4.188-3.728l-4.692,3.644l-3.142-3.644l-5.026,3.518  l0.167,0.293l1.257-0.838l1.801,2.053v11.226l-1.382,1.383l4.021,3.393l3.896-3.519l-1.592-1.508v-11.98l1.089-0.753l2.89,2.513  v10.305l-1.173,1.214l4.105,3.729l5.194-3.561L34.851,28.787L34.851,28.787z M42.348,12.492V7.424l-7.246,6.996  c0.963,0.084,2.346-0.084,2.346,2.681v10.304l-1.341,1.341l4.817,3.854l5.822-4.021l-0.167-0.251l-1.676,1.173l-2.555-2.22V14.251  h3.142l2.094-1.759H42.348L42.348,12.492z M61.073,26.105l-4.021,3.184l-4.608-3.645v-2.261l7.959-5.614l-4.021-6.241l-8.838,4.859  v11.77l6.074,4.398l7.666-6.157L61.073,26.105L61.073,26.105z M52.443,22.923v-8.755l3.854,6.032L52.443,22.923L52.443,22.923z   M75.649,11.822c-0.67,0.46-1.256,0.712-1.885,0.712c-0.67,0-1.508-0.419-1.927-0.963c0,0.041-3.184,3.435-3.184,3.435l-3.184-3.435  l-5.194,3.602l0.167,0.294l1.382-0.922l1.885,2.053v11.268l-2.263,1.718l0.21,0.209l1.131-0.796l4.23,3.603l5.362-3.561  l-0.167-0.251l-1.382,0.837l-2.178-1.968V15.299c0.88,0.963,1.885,1.801,3.1,1.801C73.932,17.1,75.398,14.503,75.649,11.822  L75.649,11.822z M95.168,28.787l-1.047,0.712l-1.968-1.886V15.676l1.549-1.214l-0.209-0.251l-1.382,1.089l-4.189-3.728l-4.691,3.644  l-3.142-3.644l-5.027,3.518l0.168,0.293l1.257-0.838l1.801,2.053v11.226l-1.382,1.383l4.021,3.393l3.896-3.519l-1.592-1.508v-11.98  l1.089-0.753l2.89,2.513v10.305l-1.172,1.214l4.105,3.729l5.194-3.561L95.168,28.787L95.168,28.787z M112.845,28.87l-1.298,0.88  l-2.471-2.513V15.676l1.55-1.214l-0.209-0.251l-1.382,1.089l-5.613-3.728l-4.063,2.471c-0.712,0.419-2.556,1.172-2.556,3.309  c0,1.424,1.718,2.639,3.603,3.561c-1.047,0.628-5.027,2.556-5.027,6.283c0,3.267,3.016,4.984,5.278,5.445l3.854-3.184l3.393,3.142  l5.11-3.477L112.845,28.87L112.845,28.87z M104.258,21.917c-2.43-0.544-7.079-2.346-7.079-4.649c0-1.676,1.382-2.387,2.178-2.806  l4.901,3.1V21.917L104.258,21.917z M104.3,29.248c-0.209,0.041-0.461,0.083-0.754,0.083c-1.885,0-3.895-2.513-3.895-5.277  c0-1.006,0.251-2.262,1.089-2.974c1.466,0.628,2.764,1.046,3.519,1.173L104.3,29.248L104.3,29.248z M119.798,12.492V7.424  l-7.247,6.996c0.963,0.084,2.346-0.084,2.346,2.681v10.304l-1.34,1.341l4.817,3.854l5.822-4.021l-0.167-0.251l-1.675,1.173  l-2.555-2.22V14.251h3.141l2.095-1.759H119.798L119.798,12.492z M129.391,3.067l-3.686,3.1l3.142,3.561l3.686-3.1L129.391,3.067  L129.391,3.067z M135.003,28.829l-1.34,0.879l-1.843-1.843V15.676l1.549-1.214l-0.209-0.251l-1.298,1.005l-3.058-3.644l-5.027,3.518  l0.167,0.293l1.256-0.838l1.676,2.094v11.226l-2.262,1.718l0.209,0.209l1.131-0.796l3.938,3.603l5.278-3.519L135.003,28.829  L135.003,28.829z M150.125,15.592l-5.529-4.062l-8.546,4.9v12.064l5.53,4.062l8.545-5.319V15.592L150.125,15.592z M140.951,26.525  V14.126l4.272,3.183v12.399L140.951,26.525L140.951,26.525z M171.111,28.787l-1.047,0.712l-1.969-1.886V15.676l1.55-1.214  l-0.209-0.251l-1.383,1.089l-4.188-3.728l-4.691,3.644l-3.141-3.644l-5.027,3.518l0.168,0.293l1.256-0.838l1.801,2.053v11.226  l-1.383,1.383l4.022,3.393l3.896-3.519l-1.592-1.508v-11.98l1.09-0.753l2.89,2.513v10.305l-1.173,1.214l4.106,3.729l5.194-3.561  L171.111,28.787L171.111,28.787z M188.787,28.87l-1.299,0.88l-2.471-2.513V15.676l1.55-1.214l-0.209-0.251l-1.382,1.089  l-5.614-3.728l-4.063,2.471c-0.712,0.419-2.555,1.172-2.555,3.309c0,1.424,1.718,2.639,3.603,3.561  c-1.047,0.628-5.026,2.556-5.026,6.283c0,3.267,3.015,4.984,5.277,5.445l3.854-3.184l3.393,3.142l5.111-3.477L188.787,28.87  L188.787,28.87z M180.2,21.917c-2.429-0.544-7.079-2.346-7.079-4.649c0-1.676,1.382-2.387,2.178-2.806l4.901,3.1V21.917  L180.2,21.917z M180.242,29.248c-0.209,0.041-0.461,0.083-0.753,0.083c-1.885,0-3.896-2.513-3.896-5.277  c0-1.006,0.251-2.262,1.089-2.974c1.466,0.628,2.765,1.046,3.519,1.173L180.242,29.248L180.242,29.248z M198.756,28.535  l-1.507,0.964l-1.969-1.886V0.68l-6.409,4.356c0.502,0.334,1.466,1.005,1.466,2.765v19.855l-1.215,1.214l4.147,3.729l5.654-3.812  L198.756,28.535L198.756,28.535z M230.172,2.732c0-0.545-0.125-1.005-0.335-1.633h-0.126c-0.544,1.466-1.131,2.262-2.849,2.262  c-1.508,0-2.681-0.922-3.309-1.592c0,0.042-5.027,5.823-5.027,5.823l0.252,0.209l1.424-1.634c1.088,0.838,2.053,1.801,4.481,1.843  v14.661L214.379,4.827c-0.795-1.341-2.177-3.352-4.523-3.352c-2.764,0-4.859,2.388-4.524,6.409h0.167  c0.209-1.005,0.795-2.262,2.011-2.262c0.963,0,1.76,0.922,2.221,1.76v5.738c-3.184,0-4.985,1.466-4.985,3.979  c0,1.047,0.754,3.309,2.932,3.686v-0.125c-0.293-0.293-0.586-0.544-0.586-1.131c0-0.963,0.711-1.508,2.01-1.508  c0.209,0,0.502,0.042,0.629,0.083v7.456c-3.729,0.042-6.619,2.095-6.619,5.613c0,3.351,2.89,4.901,5.906,4.732v-0.125  c-1.885-0.21-2.848-1.173-2.848-2.556c0-1.508,1.088-2.304,2.471-2.304c1.424,0,2.43,0.88,3.309,1.885l5.027-5.655l-0.209-0.209  l-1.299,1.467c-1.927-1.719-3.184-2.514-5.403-2.849V7.926l14.2,24.756h0.754V8.01C227.743,7.843,230.172,5.79,230.172,2.732  L230.172,2.732z M234.737,32.557l7.666-6.157l-0.21-0.294l-4.021,3.184l-4.607-3.645v-2.261l7.959-5.614l-4.021-6.241l-8.838,4.859  v11.561l-1.718,1.34l0.209,0.252l1.634-1.299L234.737,32.557L234.737,32.557z M233.564,22.923v-8.755l3.854,6.032L233.564,22.923  L233.564,22.923z M269.631,13.54l-1.173,0.88l-3.352-2.848l-3.896,3.518l1.592,1.508v13.11l-3.979-2.722v-10.64l1.382-0.964  l-4.104-3.812l-3.812,3.518l1.592,1.508v12.691l-0.252,0.168l-3.728-2.723v-10.43c0-2.429-1.215-3.142-2.765-4.105  c-1.299-0.796-1.969-1.55-1.969-2.765c0-1.34,1.172-1.885,1.549-2.094c-1.34-0.042-5.067,1.298-5.151,4.691  c-0.043,1.759,0.795,2.513,1.675,3.351c0.88,0.837,1.718,1.634,1.718,3.1v10.22l-1.801,1.425l0.209,0.209l1.718-1.341l4.481,3.645  l4.273-2.974l4.691,2.974l9.215-5.445V15.383l2.052-1.592L269.631,13.54L269.631,13.54z M299.789,3.612l-1.76,1.591l-3.937-3.435  l-5.32,4.272V2.02h-0.335v28.778c-0.587-0.084-1.801-0.419-3.142-0.629V6.083c0-1.759-1.257-4.189-4.398-4.189  c-3.226,0-5.11,2.639-5.11,4.943h0.125c0.168-1.047,0.881-1.969,1.928-1.969c1.089,0,2.011,0.67,2.011,3.016v6.869  c-2.975,0.126-4.775,1.969-4.775,3.979c0,1.132,0.712,3.268,2.975,3.351v-0.167c-0.755-0.334-0.922-0.712-0.922-1.131  c0-1.005,0.963-1.34,2.303-1.34h0.336v11.059c-2.556,0.879-3.728,2.597-3.728,4.733c0,2.932,2.345,5.193,5.78,5.193  c2.429,0,4.146-0.419,6.367-0.921c1.801-0.377,3.77-0.797,4.816-0.797c1.341,0,1.928,0.587,1.928,1.551  c0,1.215-0.461,1.843-1.173,2.053v0.167c2.89-0.545,4.565-2.22,4.565-4.817c0-2.681-2.555-4.314-5.403-4.314  c-1.467,0-4.147,0.461-6.325,0.964c-2.43,0.544-4.524,0.795-5.278,0.795c-1.214,0-2.723-0.544-2.723-2.178  c0-1.466,1.215-2.639,4.23-2.639c1.634,0,3.226,0.251,5.236,0.712c2.137,0.461,3.603,1.09,5.445,1.09  c2.556,0,4.607-0.922,4.607-4.649V5.581l1.885-1.717L299.789,3.612L299.789,3.612z M292.584,15.131  c-0.461,0.502-1.005,0.921-1.885,0.921c-0.963,0-1.466-0.502-1.927-0.921V6.46l1.257-1.005l2.555,2.178V15.131L292.584,15.131z   M292.584,19.236c-0.418-0.419-0.963-0.795-1.885-0.795c-0.921,0-1.55,0.461-1.927,0.795V15.55c0.377,0.335,1.006,0.838,1.927,0.838  c0.922,0,1.467-0.419,1.885-0.838V19.236L292.584,19.236z M292.584,27.908c0,1.423-0.711,3.015-2.555,3.015  c-0.293,0-0.964-0.042-1.257-0.083V19.655c0.419-0.377,0.964-0.88,1.927-0.88c0.88,0,1.383,0.419,1.885,0.88V27.908L292.584,27.908z   M307.496,32.557l8.545-5.319V15.592l-5.528-4.062l-8.545,4.9v11.52l-1.676,1.34l0.167,0.252l1.383-1.131L307.496,32.557  L307.496,32.557z M306.869,26.525V14.126l4.271,3.183v12.399L306.869,26.525L306.869,26.525z M332.169,11.822  c-0.671,0.46-1.257,0.712-1.886,0.712c-0.67,0-1.508-0.419-1.927-0.963c0,0.041-3.184,3.435-3.184,3.435l-3.183-3.435l-5.194,3.602  l0.167,0.294l1.383-0.922l1.885,2.053v11.268l-2.262,1.718l0.21,0.209l1.13-0.796l4.23,3.603l5.362-3.561l-0.168-0.251l-1.382,0.837  l-2.179-1.968V15.299c0.88,0.963,1.885,1.801,3.1,1.801C330.451,17.1,331.918,14.503,332.169,11.822L332.169,11.822z   M352.652,28.494l-1.593,1.005l-8.838-13.195l0.461-0.628c0.963,0.586,1.843,1.382,3.686,1.382c1.801,0,4.189-1.927,4.398-5.487  c-0.461,0.628-1.383,1.382-2.891,1.382c-1.089,0-2.178-0.712-2.849-1.382l-6.031,8.88l8.001,12.189l5.821-3.854L352.652,28.494  L352.652,28.494z M341.928,28.829l-1.34,0.879l-1.844-1.843V0.806l-6.618,4.565c0.754,0.251,1.676,0.67,1.676,2.43v20.064  l-2.262,1.718l0.209,0.209l1.131-0.796l3.938,3.603l5.277-3.519L341.928,28.829L341.928,28.829z M380.968,4.366  c0-3.436-3.268-4.482-5.99-4.356v0.293c1.634,0.126,2.891,0.796,2.891,1.885c0,0.754-0.544,1.718-2.179,1.718  c-1.298,0-3.435-0.754-5.445-1.424c-2.221-0.753-4.314-1.466-6.073-1.466c-3.435,0-6.032,2.555-6.032,5.697  c0,2.555,1.969,3.435,2.765,3.77l0.042-0.126c-0.503-0.335-0.838-0.712-0.838-1.801c0-0.921,0.67-2.136,2.429-2.136  c1.592,0,3.688,0.712,6.451,1.508c2.389,0.67,4.943,1.299,6.368,1.466v5.571l-2.682,2.22l2.682,2.304v7.624  c-1.383,0.797-2.976,1.047-4.356,1.047c-2.556,0-4.901-0.711-6.828-2.848l7.246-3.519V9.728l-8.838,3.938  c0.922-2.346,2.639-4.105,4.523-5.236l-0.042-0.125c-5.235,1.424-10.012,6.241-10.012,12.189c0,7.12,5.697,12.398,12.273,12.398  c7.121,0,11.311-5.571,11.227-11.477h-0.126c-1.047,2.262-2.765,4.397-4.733,5.528v-7.456l2.807-2.262l-2.807-2.262V9.393  C378.287,9.393,380.968,7.675,380.968,4.366L380.968,4.366z M366.055,24.012l-2.052,1.047c-1.257-1.634-2.095-3.937-2.095-6.911  c0-1.215,0.126-2.891,0.545-4.063l3.645-1.634L366.055,24.012L366.055,24.012z M386.54,3.067l-3.688,3.1l3.143,3.561l3.688-3.1  L386.54,3.067L386.54,3.067z M392.152,28.829l-1.342,0.879l-1.844-1.843V15.676l1.55-1.214l-0.208-0.251l-1.298,1.005l-3.06-3.644  l-5.025,3.518l0.166,0.293l1.258-0.838l1.675,2.094v11.226l-2.261,1.718l0.209,0.209l1.131-0.796l3.938,3.603l5.274-3.519  L392.152,28.829L392.152,28.829z M420.427,28.661l-1.26,0.838l-1.969-1.886V15.676l1.593-1.214l-0.207-0.251l-1.424,1.089  l-4.189-3.728l-4.734,3.686l-4.149-3.686l-4.647,3.644l-3.142-3.644l-5.029,3.518l0.17,0.293l1.255-0.838l1.805,2.053v11.226  l-1.386,1.383l4.025,3.393l3.895-3.519l-1.593-1.508v-11.98l1.048-0.753l2.89,2.513v10.472l-1.341,1.383l4.062,3.393l3.812-3.519  l-1.593-1.508v-11.98l1.004-0.796l2.935,2.556v10.305l-1.173,1.214l4.106,3.729l5.4-3.687L420.427,28.661L420.427,28.661z   M435.045,26.105l-4.021,3.184l-4.608-3.645v-2.261l7.957-5.614l-4.02-6.241l-8.841,4.859v11.77l6.075,4.398l7.664-6.157  L435.045,26.105L435.045,26.105z M426.416,22.923v-8.755l3.851,6.032L426.416,22.923L426.416,22.923z M450,21.541l-3.394-2.597  c2.26-1.969,3.056-4.482,3.056-6.284c0-0.25-0.044-0.711-0.082-1.13h-0.126c-0.337,0.921-1.216,1.717-2.596,1.717  c-1.342,0-2.139-0.754-2.978-1.675l-7.789,4.314v6.325l2.973,2.345c-2.973,2.64-3.562,4.273-3.562,5.781  c0,1.55,0.883,2.849,2.389,3.435l0.126-0.209c-0.377-0.336-0.71-0.545-0.71-1.341c0-0.586,0.584-1.508,1.926-1.508  c1.718,0,2.766,1.173,3.311,1.801c0-0.041,7.456-4.565,7.456-4.565V21.541L450,21.541z M448.238,16.347  c-1.173,2.094-3.77,4.146-5.279,5.319l-1.882-1.591v-6.158c0.753,1.675,2.302,3.1,4.313,3.1  C446.563,17.017,447.316,16.807,448.238,16.347L448.238,16.347z M445.015,30.169c-0.883-1.969-2.766-3.393-4.859-3.393  c-0.503,0-2.056-0.042-3.393,0.796c0.796-1.341,3.181-3.771,6.196-5.571l2.056,1.718V30.169L445.015,30.169z"/>
</svg>