<?xml version="1.0" encoding="utf-8"?>
<!-- Generator: Adobe Illustrator 16.0.0, SVG Export Plug-In . SVG Version: 6.00 Build 0)  -->
<!DOCTYPE svg PUBLIC "-//W3C//DTD SVG 1.1//EN" "http://www.w3.org/Graphics/SVG/1.1/DTD/svg11.dtd">
<svg version="1.1" id="Layer_1" xmlns="http://www.w3.org/2000/svg" xmlns:xlink="http://www.w3.org/1999/xlink" x="0px" y="0px"
	 width="213.5px" height="54.75px" viewBox="0 0 213.5 54.75" enable-background="new 0 0 213.5 54.75" xml:space="preserve">
<rect x="108.033" y="5.716" fill="#025A6C" width="3.832" height="43.843"/>
<rect x="150.377" y="7.841" fill="#025A6C" width="3.051" height="41.718"/>
<rect x="158.143" y="10.107" fill="#025A6C" width="4.324" height="39.452"/>
<linearGradient id="SVGID_1_" gradientUnits="userSpaceOnUse" x1="126.3223" y1="28.6865" x2="131.8887" y2="28.6865">
	<stop  offset="0" style="stop-color:#32695C"/>
	<stop  offset="1" style="stop-color:#323972"/>
</linearGradient>
<rect x="126.322" y="7.814" fill="url(#SVGID_1_)" width="5.566" height="41.745"/>
<linearGradient id="SVGID_2_" gradientUnits="userSpaceOnUse" x1="270.9336" y1="-173.3389" x2="274.9102" y2="-173.3389" gradientTransform="matrix(1 0 0 -1 -183.3999 -144.5498)">
	<stop  offset="0" style="stop-color:#32695C"/>
	<stop  offset="1" style="stop-color:#025A6C"/>
</linearGradient>
<rect x="87.533" y="8.181" fill="url(#SVGID_2_)" width="3.977" height="41.215"/>
<linearGradient id="SVGID_3_" gradientUnits="userSpaceOnUse" x1="244.9316" y1="-176.4731" x2="252.1855" y2="-176.4731" gradientTransform="matrix(1 0 0 -1 -183.3999 -144.5498)">
	<stop  offset="0" style="stop-color:#468778"/>
	<stop  offset="1" style="stop-color:#32695C"/>
</linearGradient>
<rect x="61.532" y="14.45" fill="url(#SVGID_3_)" width="7.254" height="34.946"/>
<rect x="42.021" y="18.996" fill="#025A6C" width="3.265" height="30.4"/>
<linearGradient id="SVGID_4_" gradientUnits="userSpaceOnUse" x1="39.6489" y1="31.9287" x2="37.9863" y2="31.9287">
	<stop  offset="0" style="stop-color:#025A6C"/>
	<stop  offset="0.2306" style="stop-color:#38674F"/>
	<stop  offset="0.4897" style="stop-color:#6F7432"/>
	<stop  offset="0.7138" style="stop-color:#977E1D"/>
	<stop  offset="0.8913" style="stop-color:#AF8410"/>
	<stop  offset="1" style="stop-color:#B8860B"/>
</linearGradient>
<rect x="37.986" y="14.461" fill="url(#SVGID_4_)" width="1.663" height="34.936"/>
<rect x="31.187" y="16.728" fill="#025A6C" width="3.928" height="32.668"/>
<rect x="15.126" y="17.862" fill="#025A6C" width="1.916" height="31.535"/>
<linearGradient id="SVGID_5_" gradientUnits="userSpaceOnUse" x1="195.9102" y1="-179.8779" x2="192.4473" y2="-179.8779" gradientTransform="matrix(1 0 0 -1 -183.3999 -144.5498)">
	<stop  offset="0" style="stop-color:#1B1B49"/>
	<stop  offset="1" style="stop-color:#025A6C"/>
</linearGradient>
<rect x="9.048" y="21.261" fill="url(#SVGID_5_)" width="3.463" height="28.136"/>
<linearGradient id="SVGID_6_" gradientUnits="userSpaceOnUse" x1="471.0518" y1="582.4023" x2="465.2393" y2="582.4023" gradientTransform="matrix(-1 0 0 -1 563.8887 607.957)">
	<stop  offset="0" style="stop-color:#1B1B49"/>
	<stop  offset="1" style="stop-color:#025A6C"/>
</linearGradient>
<rect x="92.837" y="1.711" fill="url(#SVGID_6_)" width="5.813" height="47.686"/>
<linearGradient id="SVGID_7_" gradientUnits="userSpaceOnUse" x1="465.3447" y1="582.4023" x2="459.6377" y2="582.4023" gradientTransform="matrix(-1 0 0 -1 563.8887 607.957)">
	<stop  offset="0" style="stop-color:#025A6C"/>
	<stop  offset="1" style="stop-color:#32695C"/>
</linearGradient>
<rect x="98.544" y="1.711" fill="url(#SVGID_7_)" width="5.707" height="47.686"/>
<linearGradient id="SVGID_8_" gradientUnits="userSpaceOnUse" x1="450.5352" y1="585.4551" x2="454.4229" y2="585.4551" gradientTransform="matrix(1 0 0 1 -366.7998 -556.8496)">
	<stop  offset="0" style="stop-color:#1B1B49"/>
	<stop  offset="1" style="stop-color:#32695C"/>
</linearGradient>
<rect x="83.735" y="7.814" fill="url(#SVGID_8_)" width="3.888" height="41.583"/>
<rect x="80.142" y="16.728" fill="#025A6C" width="2.242" height="32.668"/>
<linearGradient id="SVGID_9_" gradientUnits="userSpaceOnUse" x1="444.876" y1="589.9121" x2="447.0313" y2="589.9121" gradientTransform="matrix(1 0 0 1 -366.7998 -556.8496)">
	<stop  offset="0" style="stop-color:#1B1B49"/>
	<stop  offset="1" style="stop-color:#025A6C"/>
</linearGradient>
<rect x="78.076" y="16.728" fill="url(#SVGID_9_)" width="2.155" height="32.668"/>
<linearGradient id="SVGID_10_" gradientUnits="userSpaceOnUse" x1="440.1611" y1="591.0459" x2="443.5176" y2="591.0459" gradientTransform="matrix(1 0 0 1 -366.7998 -556.8496)">
	<stop  offset="0" style="stop-color:#323972"/>
	<stop  offset="1" style="stop-color:#43517A"/>
</linearGradient>
<rect x="73.361" y="18.996" fill="url(#SVGID_10_)" width="3.357" height="30.4"/>
<linearGradient id="SVGID_11_" gradientUnits="userSpaceOnUse" x1="436.9434" y1="591.0459" x2="440.2305" y2="591.0459" gradientTransform="matrix(1 0 0 1 -366.7998 -556.8496)">
	<stop  offset="0" style="stop-color:#32695C"/>
	<stop  offset="1" style="stop-color:#323972"/>
</linearGradient>
<rect x="70.143" y="18.996" fill="url(#SVGID_11_)" width="3.288" height="30.4"/>
<linearGradient id="SVGID_12_" gradientUnits="userSpaceOnUse" x1="421.2939" y1="588.7734" x2="428.4414" y2="588.7734" gradientTransform="matrix(1 0 0 1 -366.7998 -556.8496)">
	<stop  offset="0" style="stop-color:#1B1B49"/>
	<stop  offset="1" style="stop-color:#468778"/>
</linearGradient>
<rect x="54.494" y="14.45" fill="url(#SVGID_12_)" width="7.148" height="34.946"/>
<linearGradient id="SVGID_13_" gradientUnits="userSpaceOnUse" x1="416.6289" y1="587.0791" x2="420.0176" y2="587.0791" gradientTransform="matrix(1 0 0 1 -366.7998 -556.8496)">
	<stop  offset="0" style="stop-color:#32695C"/>
	<stop  offset="1" style="stop-color:#025A6C"/>
</linearGradient>
<rect x="49.829" y="11.062" fill="url(#SVGID_13_)" width="3.389" height="38.334"/>
<linearGradient id="SVGID_14_" gradientUnits="userSpaceOnUse" x1="413.4043" y1="587.0791" x2="416.7119" y2="587.0791" gradientTransform="matrix(1 0 0 1 -366.7998 -556.8496)">
	<stop  offset="0" style="stop-color:#1B1B49"/>
	<stop  offset="1" style="stop-color:#32695C"/>
</linearGradient>
<rect x="46.604" y="11.062" fill="url(#SVGID_14_)" width="3.308" height="38.334"/>
<linearGradient id="SVGID_15_" gradientUnits="userSpaceOnUse" x1="407.7324" y1="591.0459" x2="409.9092" y2="591.0459" gradientTransform="matrix(1 0 0 1 -366.7998 -556.8496)">
	<stop  offset="0" style="stop-color:#1B1B49"/>
	<stop  offset="1" style="stop-color:#025A6C"/>
</linearGradient>
<rect x="40.932" y="18.996" fill="url(#SVGID_15_)" width="2.177" height="30.4"/>
<linearGradient id="SVGID_16_" gradientUnits="userSpaceOnUse" x1="403.2734" y1="588.7783" x2="404.8613" y2="588.7783" gradientTransform="matrix(1 0 0 1 -366.7998 -556.8496)">
	<stop  offset="0" style="stop-color:#025A6C"/>
	<stop  offset="0.1433" style="stop-color:#065B6A"/>
	<stop  offset="0.2918" style="stop-color:#135E63"/>
	<stop  offset="0.4428" style="stop-color:#276358"/>
	<stop  offset="0.5954" style="stop-color:#446A49"/>
	<stop  offset="0.7494" style="stop-color:#6A7335"/>
	<stop  offset="0.9024" style="stop-color:#977E1D"/>
	<stop  offset="1" style="stop-color:#B8860B"/>
</linearGradient>
<rect x="36.473" y="14.461" fill="url(#SVGID_16_)" width="1.588" height="34.936"/>
<linearGradient id="SVGID_17_" gradientUnits="userSpaceOnUse" x1="394.2754" y1="589.9121" x2="398.0957" y2="589.9121" gradientTransform="matrix(1 0 0 1 -366.7998 -556.8496)">
	<stop  offset="0" style="stop-color:#1B1B49"/>
	<stop  offset="1" style="stop-color:#025A6C"/>
</linearGradient>
<rect x="27.475" y="16.728" fill="url(#SVGID_17_)" width="3.821" height="32.668"/>
<linearGradient id="SVGID_18_" gradientUnits="userSpaceOnUse" x1="388.9746" y1="588.7783" x2="392.9111" y2="588.7783" gradientTransform="matrix(1 0 0 1 -366.7998 -556.8496)">
	<stop  offset="0" style="stop-color:#025A6C"/>
	<stop  offset="1" style="stop-color:#468778"/>
</linearGradient>
<rect x="22.174" y="14.461" fill="url(#SVGID_18_)" width="3.937" height="34.936"/>
<linearGradient id="SVGID_19_" gradientUnits="userSpaceOnUse" x1="385.1523" y1="588.7783" x2="389.0313" y2="588.7783" gradientTransform="matrix(1 0 0 1 -366.7998 -556.8496)">
	<stop  offset="0" style="stop-color:#1B1B49"/>
	<stop  offset="1" style="stop-color:#025A6C"/>
</linearGradient>
<rect x="18.352" y="14.461" fill="url(#SVGID_19_)" width="3.879" height="34.936"/>
<linearGradient id="SVGID_20_" gradientUnits="userSpaceOnUse" x1="380.5469" y1="590.4785" x2="382.1953" y2="590.4785" gradientTransform="matrix(1 0 0 1 -366.7998 -556.8496)">
	<stop  offset="0" style="stop-color:#1B1B49"/>
	<stop  offset="1" style="stop-color:#025A6C"/>
</linearGradient>
<rect x="13.747" y="17.862" fill="url(#SVGID_20_)" width="1.648" height="31.535"/>
<linearGradient id="SVGID_21_" gradientUnits="userSpaceOnUse" x1="372.8301" y1="592.1777" x2="376.0703" y2="592.1777" gradientTransform="matrix(1 0 0 1 -366.7998 -556.8496)">
	<stop  offset="0" style="stop-color:#1B1B49"/>
	<stop  offset="1" style="stop-color:#025A6C"/>
</linearGradient>
<rect x="6.03" y="21.261" fill="url(#SVGID_21_)" width="3.241" height="28.136"/>
<linearGradient id="SVGID_22_" gradientUnits="userSpaceOnUse" x1="472.3789" y1="584.4863" x2="475.5225" y2="584.4863" gradientTransform="matrix(1 0 0 1 -366.7998 -556.8496)">
	<stop  offset="0" style="stop-color:#1B1B49"/>
	<stop  offset="1" style="stop-color:#025A6C"/>
</linearGradient>
<rect x="105.58" y="5.716" fill="url(#SVGID_22_)" width="3.143" height="43.843"/>
<linearGradient id="SVGID_23_" gradientUnits="userSpaceOnUse" x1="483.833" y1="583.3965" x2="487.7666" y2="583.3965" gradientTransform="matrix(1 0 0 1 -366.7998 -556.8496)">
	<stop  offset="0" style="stop-color:#323972"/>
	<stop  offset="0.9892" style="stop-color:#025A6C"/>
</linearGradient>
<rect x="117.033" y="3.534" fill="url(#SVGID_23_)" width="3.934" height="46.024"/>
<linearGradient id="SVGID_24_" gradientUnits="userSpaceOnUse" x1="479.9932" y1="583.3965" x2="483.8799" y2="583.3965" gradientTransform="matrix(1 0 0 1 -366.7998 -556.8496)">
	<stop  offset="0" style="stop-color:#32695C"/>
	<stop  offset="1" style="stop-color:#323972"/>
</linearGradient>
<rect x="113.193" y="3.534" fill="url(#SVGID_24_)" width="3.887" height="46.024"/>
<linearGradient id="SVGID_25_" gradientUnits="userSpaceOnUse" x1="493.8916" y1="585.7197" x2="489.0947" y2="585.7197" gradientTransform="matrix(1 0 0 1 -366.7998 -556.8496)">
	<stop  offset="0" style="stop-color:#32695C"/>
	<stop  offset="1" style="stop-color:#323972"/>
</linearGradient>
<rect x="122.295" y="8.181" fill="url(#SVGID_25_)" width="4.797" height="41.377"/>
<rect x="135.064" y="14.64" fill="#025A6C" width="2.555" height="34.877"/>
<linearGradient id="SVGID_26_" gradientUnits="userSpaceOnUse" x1="500.1084" y1="588.9287" x2="502.2627" y2="588.9287" gradientTransform="matrix(1 0 0 1 -366.7998 -556.8496)">
	<stop  offset="0" style="stop-color:#1B1B49"/>
	<stop  offset="1" style="stop-color:#025A6C"/>
</linearGradient>
<rect x="133.309" y="14.64" fill="url(#SVGID_26_)" width="2.154" height="34.877"/>
<linearGradient id="SVGID_27_" gradientUnits="userSpaceOnUse" x1="509.5693" y1="587.25" x2="513.3662" y2="587.25" gradientTransform="matrix(1 0 0 1 -366.7998 -556.8496)">
	<stop  offset="0" style="stop-color:#025A6C"/>
	<stop  offset="1" style="stop-color:#32695C"/>
</linearGradient>
<rect x="142.77" y="11.241" fill="url(#SVGID_27_)" width="3.797" height="38.317"/>
<linearGradient id="SVGID_28_" gradientUnits="userSpaceOnUse" x1="505.7764" y1="587.25" x2="509.5693" y2="587.25" gradientTransform="matrix(1 0 0 1 -366.7998 -556.8496)">
	<stop  offset="0" style="stop-color:#1B1B49"/>
	<stop  offset="1" style="stop-color:#025A6C"/>
</linearGradient>
<rect x="138.977" y="11.241" fill="url(#SVGID_28_)" width="3.793" height="38.317"/>
<linearGradient id="SVGID_29_" gradientUnits="userSpaceOnUse" x1="514.7236" y1="585.5488" x2="517.4736" y2="585.5488" gradientTransform="matrix(1 0 0 1 -366.7998 -556.8496)">
	<stop  offset="0" style="stop-color:#1B1B49"/>
	<stop  offset="1" style="stop-color:#025A6C"/>
</linearGradient>
<rect x="147.924" y="7.841" fill="url(#SVGID_29_)" width="2.75" height="41.718"/>
<linearGradient id="SVGID_30_" gradientUnits="userSpaceOnUse" x1="521.583" y1="586.6826" x2="525.4443" y2="586.6826" gradientTransform="matrix(1 0 0 1 -366.7998 -556.8496)">
	<stop  offset="0" style="stop-color:#1B1B49"/>
	<stop  offset="1" style="stop-color:#025A6C"/>
</linearGradient>
<rect x="154.783" y="10.107" fill="url(#SVGID_30_)" width="3.861" height="39.452"/>
<linearGradient id="SVGID_31_" gradientUnits="userSpaceOnUse" x1="350.3643" y1="-173.2354" x2="348.6826" y2="-173.2354" gradientTransform="matrix(1 0 0 -1 -183.3999 -144.5498)">
	<stop  offset="0" style="stop-color:#1B1B49"/>
	<stop  offset="1" style="stop-color:#025A6C"/>
</linearGradient>
<rect x="165.283" y="7.814" fill="url(#SVGID_31_)" width="1.682" height="41.745"/>
<linearGradient id="SVGID_32_" gradientUnits="userSpaceOnUse" x1="530.5889" y1="585.5361" x2="532.1748" y2="585.5361" gradientTransform="matrix(1 0 0 1 -366.7998 -556.8496)">
	<stop  offset="0" style="stop-color:#1B1B49"/>
	<stop  offset="1" style="stop-color:#025A6C"/>
</linearGradient>
<rect x="163.789" y="7.814" fill="url(#SVGID_32_)" width="1.586" height="41.745"/>
<rect x="170.158" y="10.107" fill="#025A6C" width="2.445" height="39.452"/>
<linearGradient id="SVGID_33_" gradientUnits="userSpaceOnUse" x1="535.1221" y1="586.6826" x2="537.2607" y2="586.6826" gradientTransform="matrix(1 0 0 1 -366.7998 -556.8496)">
	<stop  offset="0" style="stop-color:#1B1B49"/>
	<stop  offset="1" style="stop-color:#025A6C"/>
</linearGradient>
<rect x="168.322" y="10.107" fill="url(#SVGID_33_)" width="2.139" height="39.452"/>
<linearGradient id="SVGID_34_" gradientUnits="userSpaceOnUse" x1="546.126" y1="585.6055" x2="551.6885" y2="585.6055" gradientTransform="matrix(1 0 0 1 -366.7998 -556.8496)">
	<stop  offset="0" style="stop-color:#1B1B49"/>
	<stop  offset="1" style="stop-color:#025A6C"/>
</linearGradient>
<rect x="179.326" y="7.952" fill="url(#SVGID_34_)" width="5.563" height="41.606"/>
<linearGradient id="SVGID_35_" gradientUnits="userSpaceOnUse" x1="546.2236" y1="585.6055" x2="540.7568" y2="585.6055" gradientTransform="matrix(1 0 0 1 -366.7998 -556.8496)">
	<stop  offset="0" style="stop-color:#1B1B49"/>
	<stop  offset="1" style="stop-color:#025A6C"/>
</linearGradient>
<rect x="173.957" y="7.952" fill="url(#SVGID_35_)" width="5.467" height="41.606"/>
<linearGradient id="SVGID_36_" gradientUnits="userSpaceOnUse" x1="560.7607" y1="590.251" x2="556.8955" y2="590.251" gradientTransform="matrix(1 0 0 1 -366.7998 -556.8496)">
	<stop  offset="0" style="stop-color:#1B1B49"/>
	<stop  offset="1" style="stop-color:#025A6C"/>
</linearGradient>
<rect x="190.096" y="17.276" fill="url(#SVGID_36_)" width="3.865" height="32.251"/>
<rect x="198.174" y="21.298" fill="#025A6C" width="3.654" height="28.259"/>
<linearGradient id="SVGID_37_" gradientUnits="userSpaceOnUse" x1="553.1045" y1="590.4375" x2="556.9678" y2="590.4375" gradientTransform="matrix(1 0 0 1 -366.7998 -556.8496)">
	<stop  offset="0" style="stop-color:#1B1B49"/>
	<stop  offset="1" style="stop-color:#025A6C"/>
</linearGradient>
<rect x="186.305" y="17.649" fill="url(#SVGID_37_)" width="3.863" height="31.878"/>
<rect x="205.127" y="19.031" fill="#025A6C" width="2.525" height="30.527"/>
<linearGradient id="SVGID_38_" gradientUnits="userSpaceOnUse" x1="562.0518" y1="592.2773" x2="565.3389" y2="592.2773" gradientTransform="matrix(1 0 0 1 -366.7998 -556.8496)">
	<stop  offset="0" style="stop-color:#1B1B49"/>
	<stop  offset="1" style="stop-color:#025A6C"/>
</linearGradient>
<rect x="195.252" y="21.298" fill="url(#SVGID_38_)" width="3.287" height="28.259"/>
<linearGradient id="SVGID_39_" gradientUnits="userSpaceOnUse" x1="569.9834" y1="591.1445" x2="572.2158" y2="591.1445" gradientTransform="matrix(1 0 0 1 -366.7998 -556.8496)">
	<stop  offset="0" style="stop-color:#1B1B49"/>
	<stop  offset="1" style="stop-color:#025A6C"/>
</linearGradient>
<rect x="203.184" y="19.031" fill="url(#SVGID_39_)" width="2.232" height="30.527"/>
<g>
	<path fill="#071E2A" d="M191.076,21.844h-1.82c-0.578,0-1.049,0.472-1.049,1.05s0.471,1.048,1.049,1.048h1.82
		c0.578,0,1.049-0.47,1.049-1.048S191.654,21.844,191.076,21.844z"/>
	<path fill="#071E2A" d="M159.555,21.844h-1.82c-0.58,0-1.051,0.471-1.051,1.049c0,0.579,0.471,1.049,1.051,1.049h1.82
		c0.578,0,1.047-0.47,1.047-1.049C160.602,22.315,160.133,21.844,159.555,21.844z"/>
	<linearGradient id="SVGID_40_" gradientUnits="userSpaceOnUse" x1="94.7632" y1="20.1631" x2="102.3237" y2="20.1631">
		<stop  offset="0" style="stop-color:#1B1B49"/>
		<stop  offset="0.4108" style="stop-color:#1D1C48"/>
		<stop  offset="0.5587" style="stop-color:#242146"/>
		<stop  offset="0.6642" style="stop-color:#2F2941"/>
		<stop  offset="0.7495" style="stop-color:#40343A"/>
		<stop  offset="0.8225" style="stop-color:#564332"/>
		<stop  offset="0.8872" style="stop-color:#725627"/>
		<stop  offset="0.9442" style="stop-color:#916B1A"/>
		<stop  offset="0.9964" style="stop-color:#B5840C"/>
		<stop  offset="1" style="stop-color:#B8860B"/>
	</linearGradient>
	<path fill="url(#SVGID_40_)" d="M101.277,14.564h-5.465c-0.576,0-1.049,0.47-1.049,1.047v9.103c0,0.578,0.473,1.048,1.049,1.048
		h5.465c0.576,0,1.047-0.47,1.047-1.048v-9.103C102.324,15.034,101.853,14.564,101.277,14.564z M100.228,23.665h-3.365v-7.006h3.365
		V23.665z"/>
	<path fill="#071E2A" d="M101.277,44.619h-5.465c-0.576,0-1.049,0.471-1.049,1.047c0,0.578,0.473,1.049,1.049,1.049h5.465
		c0.576,0,1.047-0.471,1.047-1.049S101.853,44.619,101.277,44.619z"/>
	<path fill="#071E2A" d="M116.17,46.715h1.818c0.578,0,1.049-0.471,1.049-1.049s-0.471-1.047-1.049-1.047h-1.818
		c-0.578,0-1.049,0.471-1.049,1.047C115.121,46.244,115.592,46.715,116.17,46.715z"/>
	<path fill="#071E2A" d="M128.914,44.619h-3.645c-0.576,0-1.049,0.471-1.049,1.047c0,0.578,0.473,1.049,1.049,1.049h3.645
		c0.574,0,1.045-0.471,1.045-1.049S129.49,44.619,128.914,44.619z"/>
	<path fill="#071E2A" d="M128.914,40.977h-3.645c-0.576,0-1.049,0.472-1.049,1.049c0,0.578,0.473,1.05,1.049,1.05h3.645
		c0.574,0,1.045-0.472,1.045-1.05C129.959,41.448,129.49,40.977,128.914,40.977z"/>
	<linearGradient id="SVGID_41_" gradientUnits="userSpaceOnUse" x1="58.6812" y1="45.667" x2="64.4199" y2="45.667">
		<stop  offset="0" style="stop-color:#025A6C"/>
		<stop  offset="0.0549" style="stop-color:#0C5C67"/>
		<stop  offset="0.1478" style="stop-color:#266359"/>
		<stop  offset="0.2675" style="stop-color:#526D42"/>
		<stop  offset="0.4077" style="stop-color:#8D7C22"/>
		<stop  offset="0.5" style="stop-color:#B8860B"/>
		<stop  offset="0.9731" style="stop-color:#025A6C"/>
	</linearGradient>
	<path fill="url(#SVGID_41_)" d="M63.37,44.619h-3.641c-0.578,0-1.048,0.471-1.048,1.047c0,0.578,0.47,1.049,1.049,1.049h3.641
		c0.578,0,1.049-0.471,1.049-1.049S63.949,44.619,63.37,44.619z"/>
	<path fill="#071E2A" d="M125.271,30.213c0.58,0,1.051-0.469,1.051-1.049v-9.102c0-0.579-0.471-1.049-1.051-1.049
		c-0.576,0-1.049,0.47-1.049,1.049v9.102C124.223,29.744,124.695,30.213,125.271,30.213z"/>
	<path fill="#071E2A" d="M128.914,19.014c-0.58,0-1.051,0.47-1.051,1.049v9.103c0,0.578,0.471,1.049,1.051,1.049
		c0.574,0,1.045-0.471,1.045-1.049v-9.103C129.959,19.484,129.49,19.014,128.914,19.014z"/>
	<path fill="#071E2A" d="M179.326,19.014c-0.578,0-1.049,0.47-1.049,1.049v9.103c0,0.578,0.471,1.049,1.049,1.049
		s1.051-0.471,1.051-1.049v-9.103C180.375,19.484,179.904,19.014,179.326,19.014z"/>
	<path fill="#071E2A" d="M31.073,19.014c-0.579,0-1.049,0.47-1.049,1.049v9.103c0,0.578,0.47,1.049,1.049,1.049
		c0.576,0,1.046-0.471,1.046-1.049v-9.103C32.119,19.484,31.649,19.014,31.073,19.014z"/>
	<path fill="#071E2A" d="M86.713,46.713h1.82c0.577,0,1.047-0.469,1.047-1.049c0-0.576-0.47-1.045-1.047-1.045h-1.82
		c-0.577,0-1.047,0.469-1.047,1.045C85.665,46.244,86.136,46.713,86.713,46.713z"/>
	<path fill="#071E2A" d="M68.786,17.282H54.267c-0.579,0-1.049,0.471-1.049,1.049s0.47,1.049,1.049,1.049h14.519
		c0.578,0,1.049-0.471,1.049-1.049S69.365,17.282,68.786,17.282z"/>
	<path fill="#071E2A" d="M50.832,21.844h-1.821c-0.577,0-1.046,0.471-1.046,1.049c0,0.579,0.47,1.049,1.046,1.049h1.821
		c0.576,0,1.046-0.47,1.046-1.049C51.879,22.315,51.409,21.844,50.832,21.844z"/>
	<linearGradient id="SVGID_42_" gradientUnits="userSpaceOnUse" x1="20.2173" y1="22.8926" x2="24.1313" y2="22.8926">
		<stop  offset="0" style="stop-color:#1B1B49"/>
		<stop  offset="0.0916" style="stop-color:#1F1D48"/>
		<stop  offset="0.1739" style="stop-color:#292543"/>
		<stop  offset="0.2526" style="stop-color:#3C313C"/>
		<stop  offset="0.3291" style="stop-color:#564332"/>
		<stop  offset="0.404" style="stop-color:#775A25"/>
		<stop  offset="0.4767" style="stop-color:#9F7515"/>
		<stop  offset="0.5161" style="stop-color:#B8860B"/>
		<stop  offset="0.5833" style="stop-color:#946E19"/>
		<stop  offset="0.6778" style="stop-color:#69502A"/>
		<stop  offset="0.7693" style="stop-color:#473938"/>
		<stop  offset="0.8557" style="stop-color:#2E2941"/>
		<stop  offset="0.9348" style="stop-color:#1F1E47"/>
		<stop  offset="1" style="stop-color:#1A1B49"/>
	</linearGradient>
	<path fill="url(#SVGID_42_)" d="M21.263,23.942h1.822c0.576,0,1.046-0.47,1.046-1.049c0-0.578-0.47-1.049-1.046-1.049h-1.822
		c-0.576,0-1.046,0.471-1.046,1.048C20.217,23.471,20.686,23.942,21.263,23.942z"/>
	<path fill="#071E2A" d="M207.039,17.29h-3.398c-1.213,0-2.197,0.985-2.197,2.196v0.074c-0.023-0.001-0.047-0.003-0.068-0.003
		h-5.668c-0.023,0-0.045,0.002-0.07,0.003v-1.816c0-1.21-0.982-2.195-2.197-2.195l-6.75,0.013v-3.755V9.614V8.406
		c0-1.211-0.982-2.195-2.193-2.195h-10.08c-1.211,0-2.195,0.984-2.195,2.195V8.369c-0.021-0.001-0.047-0.003-0.07-0.003h-3.369
		c-0.023,0-0.049,0.002-0.07,0.003V8.296c0-1.212-0.984-2.196-2.195-2.196h-2.268c-1.211,0-2.195,0.984-2.195,2.196v0.073
		c-0.021-0.001-0.047-0.004-0.07-0.004h-6.74c-0.021,0-0.045,0.003-0.068,0.004V8.296c0-1.212-0.986-2.196-2.195-2.196h-4.594
		c-1.211,0-2.193,0.984-2.193,2.196v1.207c-0.023,0-0.049-0.004-0.072-0.004h-6.682c-1.209,0-2.193,0.985-2.193,2.196v1.207
		c-0.023,0-0.049-0.003-0.072-0.003h-3.398c-0.055,0-0.105,0.012-0.16,0.016V8.969c0-1.582-1.289-2.869-2.869-2.869h-8.057V4.688
		c0-1.608-1.258-2.868-2.865-2.868h-5.465c-1.346,0-2.467,0.935-2.773,2.186h-5.609V2.869c0-1.607-1.261-2.869-2.868-2.869h-9.104
		c-1.579,0-2.865,1.287-2.865,2.869v3.232h-6.234c-1.582,0-2.869,1.286-2.869,2.868v6.028c-0.031-0.002-0.063-0.01-0.094-0.01
		h-3.399c-1.211,0-2.196,0.985-2.196,2.196v0.074c-0.023-0.001-0.046-0.003-0.069-0.003h-5.674c-0.024,0-0.048,0.002-0.07,0.003
		v-2.341c0-1.211-0.985-2.196-2.197-2.196l-13.371,0.014v-0.01v-1.207c0-1.211-0.984-2.196-2.196-2.196h-5.666
		c-1.21,0-2.195,0.985-2.195,2.196v5.74c-0.024-0.001-0.048-0.003-0.071-0.003h-3.37c-0.025,0-0.047,0.002-0.071,0.003v-2.341
		c0-1.211-0.985-2.196-2.196-2.196h-2.267c-1.211,0-2.196,0.985-2.196,2.196v0.075c-0.024-0.001-0.046-0.005-0.07-0.005h-6.74
		c-0.023,0-0.047,0.004-0.071,0.005v-0.075c0-1.211-0.985-2.196-2.194-2.196h-6.8c-1.211,0-2.196,0.985-2.196,2.196v1.207
		c-0.023,0-0.046-0.003-0.07-0.003h-2.267c-1.21,0-2.195,0.984-2.195,2.196v1.207c-0.024,0-0.047-0.004-0.072-0.004H6.455
		c-1.21,0-2.195,0.985-2.195,2.196v29.32c0,0.023,0.002,0.047,0.003,0.07H82.03h2.099h47.449h2.027h75.629
		c0.004-0.023,0.006-0.047,0.006-0.07V19.486C209.234,18.275,208.248,17.29,207.039,17.29z M12.128,48.914
		c0,0.039-0.033,0.07-0.072,0.07H6.45c-0.039,0-0.071-0.031-0.071-0.07V21.716c0-0.039,0.033-0.071,0.071-0.071h5.606
		c0.039,0,0.072,0.032,0.072,0.071V48.914z M16.659,48.914c0,0.039-0.031,0.07-0.07,0.07h-2.267c-0.039,0-0.071-0.031-0.071-0.07
		V21.716v-3.399c0-0.04,0.032-0.071,0.071-0.071h2.267c0.039,0,0.07,0.031,0.07,0.071V48.914z M25.726,48.914
		c0,0.039-0.033,0.07-0.071,0.07h-6.8c-0.039,0-0.071-0.031-0.071-0.07v-2.338h6.942V48.914z M25.726,44.451h-6.942V19.379h6.942
		V44.451z M25.726,17.183v0.071h-6.942v-2.338c0-0.039,0.032-0.071,0.071-0.071h6.8c0.038,0,0.071,0.032,0.071,0.071V17.183z
		 M34.732,48.914c0,0.039-0.031,0.07-0.07,0.07h-6.74c-0.039,0-0.071-0.031-0.071-0.07V17.183c0-0.039,0.033-0.071,0.071-0.071h6.74
		c0.039,0,0.07,0.032,0.07,0.071V48.914z M39.265,19.448v29.466h-0.001c0,0.039-0.031,0.07-0.071,0.07h-2.266
		c-0.038,0-0.071-0.031-0.071-0.07V17.183v-2.267c0-0.039,0.033-0.071,0.071-0.071h2.267c0.04,0,0.071,0.032,0.071,0.071V19.448z
		 M44.903,48.914c0,0.039-0.032,0.07-0.071,0.07h-3.37c-0.04,0-0.071-0.031-0.071-0.07v-2.338h3.512V48.914z M44.903,44.451h-3.512
		V23.912h3.512V44.451z M44.903,21.787h-3.512v-2.338c0-0.039,0.031-0.069,0.071-0.069h3.37c0.039,0,0.071,0.03,0.071,0.069V21.787z
		 M52.835,14.916v33.998c0,0.039-0.031,0.07-0.072,0.07h-5.665c-0.039,0-0.071-0.031-0.071-0.07V19.449v-7.932
		c0-0.039,0.032-0.071,0.071-0.071h5.666c0.04,0,0.071,0.032,0.071,0.071V14.916z M68.403,19.449v29.465
		c0,0.039-0.033,0.07-0.072,0.07h-13.3c-0.039,0-0.071-0.031-0.071-0.07V14.916v-0.087l13.371,0.017
		c0.039,0,0.072,0.032,0.072,0.071V19.449z M70.528,19.449c0-0.039,0.031-0.069,0.07-0.069h5.667c0.038,0,0.069,0.03,0.069,0.069
		v2.338h-5.806V19.449z M76.335,48.914c0,0.039-0.031,0.07-0.069,0.07h-5.668c-0.039,0-0.07-0.031-0.07-0.07v-2.338h5.807V48.914z
		 M76.335,44.451h-5.807V23.912h5.807V44.451z M82,48.914c0,0.039-0.031,0.07-0.07,0.07h-3.399c-0.038,0-0.071-0.031-0.071-0.07
		V19.449v-2.266c0-0.039,0.033-0.071,0.071-0.071h3.399c0.039,0,0.07,0.032,0.07,0.071V48.914z M91.125,48.984h-7v-6.84h7V48.984z
		 M86.719,13.017h4.414v27.034h-7V17.183c0-0.021-0.005-0.042-0.006-0.063V8.969c0-0.427,0.347-0.773,0.773-0.773h6.234v2.726H86.72
		c-0.577,0-1.047,0.471-1.047,1.048C85.672,12.547,86.141,13.017,86.719,13.017z M103.867,48.984H93.221V8.195h8.058
		c0.577,0,1.047-0.47,1.047-1.046c0-0.579-0.47-1.049-1.047-1.049h-8.058V2.869c0-0.434,0.34-0.773,0.771-0.773h9.104
		c0.444,0,0.771,0.326,0.771,0.773V48.984z M111.482,48.984h-5.519V6.1h5.519V48.984z M113.576,9.377V7.28l0,0V4.688
		c0-0.432,0.34-0.771,0.771-0.771h5.463c0.438,0,0.771,0.331,0.771,0.771v36.289h-7.008v-31.6H113.576z M120.584,48.984h-7.008
		v-5.91h7.008V48.984z M131.512,48.984h-8.828V14.839h5.324c0.578,0,1.049-0.47,1.049-1.048c0-0.579-0.471-1.051-1.049-1.051h-5.324
		V8.198h8.055c0.426,0,0.773,0.346,0.773,0.771V48.984z M137.236,48.914c0,0.039-0.033,0.07-0.072,0.07h-3.398
		c-0.039,0-0.07-0.031-0.07-0.07V15.095c0-0.04,0.031-0.071,0.07-0.071h3.398c0.039,0,0.072,0.031,0.072,0.071V48.914z
		 M146.182,48.914c0,0.039-0.031,0.07-0.07,0.07h-6.682c-0.037,0-0.068-0.031-0.068-0.07V15.095v-3.399
		c0-0.04,0.031-0.071,0.068-0.071h6.682c0.039,0,0.07,0.031,0.07,0.071V48.914z M148.307,8.296c0-0.039,0.031-0.071,0.068-0.071
		h4.596c0.037,0,0.068,0.032,0.068,0.071v2.266v0.071h-4.732V8.296z M148.307,12.758h4.732v31.693h-4.732V12.758z M153.041,48.914
		c0,0.039-0.031,0.07-0.07,0.07h-4.594c-0.037,0-0.068-0.031-0.068-0.07v-2.338h4.732V48.914z M162.047,48.914
		c0.002,0.039-0.031,0.07-0.07,0.07h-6.74c-0.039,0-0.07-0.031-0.07-0.07V10.562c0-0.038,0.031-0.071,0.07-0.071h6.74
		c0.039,0,0.07,0.033,0.07,0.071V48.914z M166.578,12.828v36.086c0,0.039-0.027,0.07-0.068,0.07h-2.268
		c-0.037,0-0.068-0.031-0.068-0.07V10.562V8.296c0-0.039,0.031-0.071,0.068-0.071h2.268c0.041,0,0.068,0.032,0.068,0.071V12.828z
		 M168.705,10.561L168.705,10.561c0-0.039,0.031-0.07,0.07-0.07h3.369c0.037,0,0.07,0.031,0.07,0.07v2.338h-3.512v-2.338H168.705z
		 M168.705,15.023h3.512v29.428h-3.512V15.023z M172.219,48.914h-0.002c0,0.039-0.031,0.07-0.07,0.07h-3.369
		c-0.039,0-0.07-0.031-0.07-0.07v-2.338h3.512V48.914L172.219,48.914z M184.563,11.806v32.627h-5.744
		c-0.576,0-1.047,0.471-1.047,1.049c0,0.58,0.471,1.049,1.047,1.049h5.744v2.383c0,0.039-0.031,0.07-0.07,0.07h-10.078
		c-0.041,0-0.072-0.031-0.072-0.07V12.829V8.406c0-0.039,0.031-0.07,0.072-0.07h10.078c0.039,0,0.07,0.031,0.07,0.07V11.806z
		 M193.512,22.278v26.638c0,0.037-0.031,0.07-0.072,0.07h-6.68c-0.037,0-0.07-0.033-0.07-0.07V17.658l6.75,0.018
		c0.041,0,0.072,0.032,0.072,0.07V22.278z M195.635,21.751c0-0.039,0.031-0.069,0.07-0.069h5.666c0.039,0,0.068,0.03,0.068,0.069
		v2.338h-5.807v-2.338H195.635z M195.635,26.697h5.809v17.754h-5.809V26.697z M201.443,48.914L201.443,48.914
		c0,0.039-0.031,0.07-0.07,0.07h-5.666c-0.039,0-0.07-0.031-0.07-0.07v-2.338h5.809v2.338H201.443z M207.109,48.914
		c0,0.039-0.031,0.07-0.07,0.07h-3.398c-0.041,0-0.07-0.031-0.07-0.07V21.751v-2.265c0-0.039,0.029-0.071,0.07-0.071h3.398
		c0.039,0,0.07,0.032,0.07,0.071V48.914z"/>
</g>
<linearGradient id="SVGID_43_" gradientUnits="userSpaceOnUse" x1="280.2627" y1="-164.7119" x2="283.6279" y2="-164.7119" gradientTransform="matrix(1 0 0 -1 -183.3999 -144.5498)">
	<stop  offset="0" style="stop-color:#1B1B49"/>
	<stop  offset="1" style="stop-color:#025A6C"/>
</linearGradient>
<rect x="96.863" y="16.659" fill="url(#SVGID_43_)" width="3.365" height="7.006"/>
<linearGradient id="SVGID_44_" gradientUnits="userSpaceOnUse" x1="106.7505" y1="51.0352" x2="106.7505" y2="37">
	<stop  offset="0" style="stop-color:#071E2A;stop-opacity:0.5"/>
	<stop  offset="0.1413" style="stop-color:#071E2A;stop-opacity:0.4293"/>
	<stop  offset="1" style="stop-color:#071E2A;stop-opacity:0"/>
</linearGradient>
<rect x="4.26" y="37" fill="url(#SVGID_44_)" width="204.98" height="14.035"/>
</svg>
